<svg width="32" height="32" viewBox="0 0 32 32" fill="none" xmlns="http://www.w3.org/2000/svg">
<path d="M29.3332 13.0003C28.7865 13.0003 28.3332 12.547 28.3332 12.0003V9.33366C28.3332 5.89366 26.1065 3.66699 22.6665 3.66699H9.33317C5.89317 3.66699 3.6665 5.89366 3.6665 9.33366V12.0003C3.6665 12.547 3.21317 13.0003 2.6665 13.0003C2.11984 13.0003 1.6665 12.547 1.6665 12.0003V9.33366C1.6665 4.74699 4.7465 1.66699 9.33317 1.66699H22.6665C27.2532 1.66699 30.3332 4.74699 30.3332 9.33366V12.0003C30.3332 12.547 29.8798 13.0003 29.3332 13.0003ZM22.6665 30.3337H9.33317C4.7465 30.3337 1.6665 27.2537 1.6665 22.667V20.0003C1.6665 19.4537 2.11984 19.0003 2.6665 19.0003C3.21317 19.0003 3.6665 19.4537 3.6665 20.0003V22.667C3.6665 26.107 5.89317 28.3337 9.33317 28.3337H22.6665C26.1065 28.3337 28.3332 26.107 28.3332 22.667V20.0003C28.3332 19.4537 28.7865 19.0003 29.3332 19.0003C29.8798 19.0003 30.3332 19.4537 30.3332 20.0003V22.667C30.3332 27.2537 27.2532 30.3337 22.6665 30.3337ZM29.3332 17.0003H2.6665C2.11984 17.0003 1.6665 16.547 1.6665 16.0003C1.6665 15.4537 2.11984 15.0003 2.6665 15.0003H29.3332C29.8798 15.0003 30.3332 15.4537 30.3332 16.0003C30.3332 16.547 29.8798 17.0003 29.3332 17.0003Z" fill="#169639"/>
<path d="M22.0002 12.0003H10.0002C9.62683 12.0003 9.3335 11.707 9.3335 11.3337V8.66699C9.3335 7.56033 10.2268 6.66699 11.3335 6.66699H20.6668C21.7735 6.66699 22.6668 7.56033 22.6668 8.66699V11.3337C22.6668 11.707 22.3735 12.0003 22.0002 12.0003ZM22.0002 20.0003H10.0002C9.62683 20.0003 9.3335 20.2937 9.3335 20.667V23.3337C9.3335 24.4403 10.2268 25.3337 11.3335 25.3337H20.6668C21.7602 25.3337 22.6668 24.4403 22.6668 23.3337V20.667C22.6668 20.2937 22.3735 20.0003 22.0002 20.0003Z" fill="#169639"/>
</svg>
