<svg width="22" height="29" viewBox="0 0 22 29" fill="none" xmlns="http://www.w3.org/2000/svg">
<path d="M7.33317 0.666992H5.99984C1.99984 0.666992 0.666504 3.05366 0.666504 6.00033V26.0003C0.666504 27.107 1.91984 27.7337 2.79984 27.067L5.07984 25.3603C5.61317 24.9603 6.35984 25.0137 6.83984 25.4937L9.05317 27.7203C9.57317 28.2403 10.4265 28.2403 10.9465 27.7203L13.1865 25.4803C13.6532 25.0137 14.3998 24.9603 14.9198 25.3603L17.1998 27.067C18.0798 27.7203 19.3332 27.0937 19.3332 26.0003V3.33366C19.3332 1.86699 20.5332 0.666992 21.9998 0.666992H7.33317ZM12.9998 16.3337H6.99984C6.45317 16.3337 5.99984 15.8803 5.99984 15.3337C5.99984 14.787 6.45317 14.3337 6.99984 14.3337H12.9998C13.5465 14.3337 13.9998 14.787 13.9998 15.3337C13.9998 15.8803 13.5465 16.3337 12.9998 16.3337ZM13.9998 11.0003H5.99984C5.45317 11.0003 4.99984 10.547 4.99984 10.0003C4.99984 9.45366 5.45317 9.00033 5.99984 9.00033H13.9998C14.5465 9.00033 14.9998 9.45366 14.9998 10.0003C14.9998 10.547 14.5465 11.0003 13.9998 11.0003Z" fill="#169639"/>
</svg>
