<svg width="32" height="32" viewBox="0 0 32 32" fill="none" xmlns="http://www.w3.org/2000/svg">
<path d="M9.33317 2.66699H7.99984C3.99984 2.66699 2.6665 5.05366 2.6665 8.00033V28.0003C2.6665 29.107 3.91984 29.7337 4.79984 29.067L7.07984 27.3603C7.61317 26.9603 8.35984 27.0137 8.83984 27.4937L11.0532 29.7203C11.5732 30.2403 12.4265 30.2403 12.9465 29.7203L15.1865 27.4803C15.6532 27.0137 16.3998 26.9603 16.9198 27.3603L19.1998 29.067C20.0798 29.7203 21.3332 29.0937 21.3332 28.0003V5.33366C21.3332 3.86699 22.5332 2.66699 23.9998 2.66699H9.33317ZM14.9998 18.3337H8.99984C8.45317 18.3337 7.99984 17.8803 7.99984 17.3337C7.99984 16.787 8.45317 16.3337 8.99984 16.3337H14.9998C15.5465 16.3337 15.9998 16.787 15.9998 17.3337C15.9998 17.8803 15.5465 18.3337 14.9998 18.3337ZM15.9998 13.0003H7.99984C7.45317 13.0003 6.99984 12.547 6.99984 12.0003C6.99984 11.4537 7.45317 11.0003 7.99984 11.0003H15.9998C16.5465 11.0003 16.9998 11.4537 16.9998 12.0003C16.9998 12.547 16.5465 13.0003 15.9998 13.0003Z" fill="#169639"/>
<path d="M24.0135 4.66699C24.8935 4.66699 25.7335 5.02699 26.3468 5.62699C26.9868 6.28033 27.3335 7.12033 27.3335 8.00033V11.227C27.3335 12.2137 26.8935 12.667 25.8935 12.667H23.3335V5.34699C23.3335 4.97366 23.6402 4.66699 24.0135 4.66699ZM24.0135 2.66699C22.5335 2.66699 21.3335 3.86699 21.3335 5.34699V14.667H25.8935C28.0002 14.667 29.3335 13.3337 29.3335 11.227V8.00033C29.3335 6.53366 28.7335 5.20033 27.7735 4.22699C26.7721 3.23568 25.4225 2.67573 24.0135 2.66699Z" fill="#169639"/>
</svg>
