<svg width="30" height="30" viewBox="0 0 30 30" fill="none" xmlns="http://www.w3.org/2000/svg">
<path d="M28.3332 12.0003C27.7865 12.0003 27.3332 11.547 27.3332 11.0003V8.33366C27.3332 4.89366 25.1065 2.66699 21.6665 2.66699H8.33317C4.89317 2.66699 2.6665 4.89366 2.6665 8.33366V11.0003C2.6665 11.547 2.21317 12.0003 1.6665 12.0003C1.11984 12.0003 0.666504 11.547 0.666504 11.0003V8.33366C0.666504 3.74699 3.7465 0.666992 8.33317 0.666992H21.6665C26.2532 0.666992 29.3332 3.74699 29.3332 8.33366V11.0003C29.3332 11.547 28.8798 12.0003 28.3332 12.0003ZM21.6665 29.3337H8.33317C3.7465 29.3337 0.666504 26.2537 0.666504 21.667V19.0003C0.666504 18.4537 1.11984 18.0003 1.6665 18.0003C2.21317 18.0003 2.6665 18.4537 2.6665 19.0003V21.667C2.6665 25.107 4.89317 27.3337 8.33317 27.3337H21.6665C25.1065 27.3337 27.3332 25.107 27.3332 21.667V19.0003C27.3332 18.4537 27.7865 18.0003 28.3332 18.0003C28.8798 18.0003 29.3332 18.4537 29.3332 19.0003V21.667C29.3332 26.2537 26.2532 29.3337 21.6665 29.3337ZM28.3332 16.0003H1.6665C1.11984 16.0003 0.666504 15.547 0.666504 15.0003C0.666504 14.4537 1.11984 14.0003 1.6665 14.0003H28.3332C28.8798 14.0003 29.3332 14.4537 29.3332 15.0003C29.3332 15.547 28.8798 16.0003 28.3332 16.0003Z" fill="#169639"/>
</svg>
