<svg width="14" height="20" viewBox="0 0 14 20" fill="none" xmlns="http://www.w3.org/2000/svg">
<path d="M13.0002 6.00033H1.00016C0.626829 6.00033 0.333496 5.70699 0.333496 5.33366V2.66699C0.333496 1.56033 1.22683 0.666992 2.3335 0.666992H11.6668C12.7735 0.666992 13.6668 1.56033 13.6668 2.66699V5.33366C13.6668 5.70699 13.3735 6.00033 13.0002 6.00033ZM13.0002 14.0003H1.00016C0.626829 14.0003 0.333496 14.2937 0.333496 14.667V17.3337C0.333496 18.4403 1.22683 19.3337 2.3335 19.3337H11.6668C12.7602 19.3337 13.6668 18.4403 13.6668 17.3337V14.667C13.6668 14.2937 13.3735 14.0003 13.0002 14.0003Z" fill="#169639"/>
</svg>
