<svg width="30" height="30" viewBox="0 0 30 30" fill="none" xmlns="http://www.w3.org/2000/svg">
<path d="M18.9998 29.331C18.8227 29.33 18.649 29.2821 18.4964 29.1922C18.3438 29.1023 18.2178 28.9736 18.1311 28.8192C18.0444 28.6647 18.0001 28.4901 18.0028 28.313C18.0056 28.1359 18.0551 27.9627 18.1465 27.811L19.5465 25.4777C19.6139 25.3647 19.7029 25.2662 19.8084 25.1876C19.9139 25.1091 20.0338 25.0521 20.1614 25.0199C20.2889 24.9877 20.4215 24.981 20.5517 25C20.6818 25.0191 20.8069 25.0636 20.9198 25.131C21.0328 25.1984 21.1313 25.2874 21.2099 25.3929C21.2884 25.4984 21.3454 25.6183 21.3776 25.7459C21.4098 25.8734 21.4165 26.006 21.3975 26.1361C21.3784 26.2663 21.3339 26.3914 21.2665 26.5043L20.9065 27.1043C24.5865 26.2377 27.3465 22.931 27.3465 18.9843C27.3465 18.4377 27.7998 17.9843 28.3465 17.9843C28.8932 17.9843 29.3465 18.4377 29.3465 18.9843C29.3332 24.691 24.6932 29.331 18.9998 29.331ZM1.6665 12.0003C1.11984 12.0003 0.666504 11.547 0.666504 11.0003C0.666504 5.30699 5.3065 0.666992 10.9998 0.666992C11.1769 0.667974 11.3506 0.71585 11.5032 0.80575C11.6558 0.89565 11.7819 1.02437 11.8686 1.1788C11.9553 1.33324 11.9995 1.50789 11.9968 1.68498C11.9941 1.86207 11.9446 2.03528 11.8532 2.18699L10.4532 4.52033C10.1732 4.98699 9.55984 5.14699 9.07984 4.85366C8.96731 4.7858 8.86934 4.69633 8.7916 4.5904C8.71385 4.48446 8.65786 4.36418 8.62687 4.23648C8.59588 4.10879 8.59049 3.97622 8.61102 3.84643C8.63156 3.71665 8.6776 3.59221 8.7465 3.48033L9.1065 2.88033C7.27519 3.31027 5.64277 4.34612 4.47386 5.81995C3.30496 7.29379 2.66809 9.11922 2.6665 11.0003C2.6665 11.547 2.21317 12.0003 1.6665 12.0003ZM18.7332 15.8403V19.7603C18.7332 23.027 17.4265 24.3337 14.1598 24.3337H10.2398C6.97317 24.3337 5.6665 23.027 5.6665 19.7603V15.8403C5.6665 12.5737 6.97317 11.267 10.2398 11.267H14.1598C17.4265 11.267 18.7332 12.5737 18.7332 15.8403Z" fill="#169639"/>
</svg>
