<svg width="32" height="32" viewBox="0 0 32 32" fill="none" xmlns="http://www.w3.org/2000/svg">
<path d="M19.9998 30.331C19.8227 30.33 19.649 30.2821 19.4964 30.1922C19.3438 30.1023 19.2178 29.9736 19.1311 29.8192C19.0444 29.6647 19.0001 29.4901 19.0028 29.313C19.0056 29.1359 19.0551 28.9627 19.1465 28.811L20.5465 26.4777C20.6139 26.3647 20.7029 26.2662 20.8084 26.1876C20.9139 26.1091 21.0338 26.0521 21.1614 26.0199C21.2889 25.9877 21.4215 25.981 21.5517 26C21.6818 26.0191 21.8069 26.0636 21.9198 26.131C22.0328 26.1984 22.1313 26.2874 22.2099 26.3929C22.2884 26.4984 22.3454 26.6183 22.3776 26.7459C22.4098 26.8734 22.4165 27.006 22.3975 27.1361C22.3784 27.2663 22.3339 27.3914 22.2665 27.5043L21.9065 28.1043C25.5865 27.2377 28.3465 23.931 28.3465 19.9843C28.3465 19.4377 28.7998 18.9843 29.3465 18.9843C29.8932 18.9843 30.3465 19.4377 30.3465 19.9843C30.3332 25.691 25.6932 30.331 19.9998 30.331ZM2.6665 13.0003C2.11984 13.0003 1.6665 12.547 1.6665 12.0003C1.6665 6.30699 6.3065 1.66699 11.9998 1.66699C12.1769 1.66797 12.3506 1.71585 12.5032 1.80575C12.6558 1.89565 12.7819 2.02437 12.8686 2.1788C12.9553 2.33324 12.9995 2.50789 12.9968 2.68498C12.9941 2.86207 12.9446 3.03528 12.8532 3.18699L11.4532 5.52033C11.1732 5.98699 10.5598 6.14699 10.0798 5.85366C9.96731 5.7858 9.86934 5.69633 9.7916 5.5904C9.71385 5.48446 9.65786 5.36418 9.62687 5.23648C9.59588 5.10879 9.59049 4.97622 9.61102 4.84643C9.63156 4.71665 9.6776 4.59221 9.7465 4.48033L10.1065 3.88033C8.27519 4.31027 6.64277 5.34612 5.47386 6.81995C4.30496 8.29379 3.66809 10.1192 3.6665 12.0003C3.6665 12.547 3.21317 13.0003 2.6665 13.0003ZM19.7332 16.8403V20.7603C19.7332 24.027 18.4265 25.3337 15.1598 25.3337H11.2398C7.97317 25.3337 6.6665 24.027 6.6665 20.7603V16.8403C6.6665 13.5737 7.97317 12.267 11.2398 12.267H15.1598C18.4265 12.267 19.7332 13.5737 19.7332 16.8403Z" fill="#169639"/>
<path d="M20.7598 6.66699H16.8398C13.6265 6.66699 12.3198 7.94699 12.2798 11.0937H15.1598C19.0798 11.0937 20.8931 12.9203 20.8931 16.827V19.707C24.0531 19.667 25.3198 18.3603 25.3198 15.147V11.2403C25.3331 7.97366 24.0265 6.66699 20.7598 6.66699Z" fill="#169639"/>
</svg>
