<svg width="1134" height="329" viewBox="0 0 1134 329" fill="none" xmlns="http://www.w3.org/2000/svg">
<g opacity="0.55">
<circle opacity="0.25" cx="810.012" cy="226.004" r="142.918" transform="rotate(108 810.012 226.004)" stroke="#7AC88F" stroke-width="3"/>
<circle opacity="0.25" cx="856.988" cy="185.282" r="142.918" transform="rotate(108 856.988 185.282)" stroke="#7AC88F" stroke-width="3"/>
<circle opacity="0.25" cx="904.675" cy="147.093" r="142.918" transform="rotate(108 904.675 147.093)" stroke="#7AC88F" stroke-width="3"/>
<circle opacity="0.25" cx="951.65" cy="106.371" r="142.918" transform="rotate(108 951.65 106.371)" stroke="#7AC88F" stroke-width="3"/>
</g>
<g opacity="0.55">
<circle opacity="0.25" cx="144.418" cy="144.418" r="142.918" transform="matrix(0.309017 0.951057 0.951057 -0.309017 141.638 143.091)" stroke="#7AC88F" stroke-width="3"/>
<circle opacity="0.25" cx="144.418" cy="144.418" r="142.918" transform="matrix(0.309017 0.951057 0.951057 -0.309017 94.6626 102.369)" stroke="#7AC88F" stroke-width="3"/>
<circle opacity="0.25" cx="144.418" cy="144.418" r="142.918" transform="matrix(0.309017 0.951057 0.951057 -0.309017 46.9756 64.1797)" stroke="#7AC88F" stroke-width="3"/>
<circle opacity="0.25" cx="144.418" cy="144.418" r="142.918" transform="matrix(0.309017 0.951057 0.951057 -0.309017 0 23.458)" stroke="#7AC88F" stroke-width="3"/>
</g>
</svg>
