<svg width="24" height="24" viewBox="0 0 24 24" fill="none" xmlns="http://www.w3.org/2000/svg">
<path d="M14.69 22.75C14.25 22.75 13.79 22.62 13.32 22.37L9.39 20.18C9.2 20.08 8.79 20.08 8.6 20.18L4.68 22.37C3.83 22.84 2.96 22.88 2.3 22.49C1.63 22.1 1.25 21.32 1.25 20.36V9.00001C1.25 6.87001 2.98 5.14001 5.11 5.14001H12.89C15.02 5.14001 16.75 6.87001 16.75 9.00001V20.36C16.75 21.32 16.37 22.1 15.7 22.49C15.4 22.66 15.06 22.75 14.69 22.75ZM9 18.6C9.4 18.6 9.79 18.69 10.12 18.87L14.05 21.06C14.41 21.26 14.74 21.31 14.94 21.19C15.13 21.08 15.25 20.76 15.25 20.35V8.99001C15.25 7.69001 14.19 6.63001 12.89 6.63001H5.11C3.81 6.63001 2.75 7.69001 2.75 8.99001V20.35C2.75 20.76 2.87 21.08 3.06 21.19C3.25 21.3 3.59 21.25 3.95 21.05L7.88 18.86C8.2 18.69 8.6 18.6 9 18.6Z" fill="#07080A"/>
<path d="M20.69 18.872C20.25 18.872 19.79 18.742 19.32 18.492L15.63 16.432C15.5137 16.3682 15.417 16.274 15.35 16.1596C15.2831 16.0451 15.2485 15.9146 15.25 15.782V9.00196C15.25 7.70196 14.19 6.64196 12.89 6.64196H8C7.59 6.64196 7.25 6.30196 7.25 5.89196V5.12196C7.25 2.99196 8.98 1.26196 11.11 1.26196H18.89C21.02 1.26196 22.75 2.99196 22.75 5.12196V16.482C22.75 17.442 22.37 18.222 21.7 18.612C21.4 18.782 21.06 18.872 20.69 18.872ZM16.75 15.332L20.05 17.182C20.41 17.382 20.74 17.432 20.94 17.312C21.13 17.202 21.25 16.882 21.25 16.472V5.11196C21.25 3.81196 20.19 2.75196 18.89 2.75196H11.11C9.81 2.75196 8.75 3.81196 8.75 5.11196V5.13196H12.89C15.02 5.13196 16.75 6.86196 16.75 8.99196V15.332Z" fill="#07080A"/>
<path d="M11 12.75H7C6.59 12.75 6.25 12.41 6.25 12C6.25 11.59 6.59 11.25 7 11.25H11C11.41 11.25 11.75 11.59 11.75 12C11.75 12.41 11.41 12.75 11 12.75Z" fill="#07080A"/>
<path d="M9 14.75C8.59 14.75 8.25 14.41 8.25 14V10C8.25 9.59 8.59 9.25 9 9.25C9.41 9.25 9.75 9.59 9.75 10V14C9.75 14.41 9.41 14.75 9 14.75Z" fill="#07080A"/>
</svg>
