<svg width="24" height="24" viewBox="0 0 24 24" fill="none" xmlns="http://www.w3.org/2000/svg">
<path d="M21.9998 5.11V16.47C21.9998 17.92 20.9598 18.53 19.6898 17.83L17.7598 16.75C17.6816 16.7061 17.6163 16.6423 17.5706 16.565C17.525 16.4877 17.5005 16.3998 17.4998 16.31V8.99C17.4998 6.45 15.4298 4.38 12.8898 4.38H8.81984C8.44984 4.38 8.18984 3.99 8.35984 3.67C8.87984 2.68 9.91984 2 11.1098 2H18.8898C20.5998 2 21.9998 3.4 21.9998 5.11Z" fill="#FAFAFA"/>
<path d="M12.89 5.87903H5.11C4.28599 5.88167 3.49648 6.21017 2.91381 6.79284C2.33114 7.37551 2.00264 8.16502 2 8.98903V20.349C2 21.799 3.04 22.409 4.31 21.709L8.24 19.519C8.66 19.289 9.34 19.289 9.76 19.519L13.69 21.709C14.96 22.409 16 21.799 16 20.349V8.98903C16 7.27903 14.6 5.87903 12.89 5.87903ZM11 12.749H9.75V13.999C9.75 14.409 9.41 14.749 9 14.749C8.59 14.749 8.25 14.409 8.25 13.999V12.749H7C6.59 12.749 6.25 12.409 6.25 11.999C6.25 11.589 6.59 11.249 7 11.249H8.25V9.99903C8.25 9.58903 8.59 9.24903 9 9.24903C9.41 9.24903 9.75 9.58903 9.75 9.99903V11.249H11C11.41 11.249 11.75 11.589 11.75 11.999C11.75 12.409 11.41 12.749 11 12.749Z" fill="#FAFAFA"/>
</svg>
