<svg width="105" height="40" viewBox="0 0 105 40" fill="none" xmlns="http://www.w3.org/2000/svg">
<path d="M19.2402 29.9998H31.0802C37.1202 29.9998 40.6002 27.0798 40.6002 22.0798C40.6002 18.6798 39.0402 16.3598 35.9602 15.3598C38.7202 14.1998 40.1602 11.8798 40.1602 8.63977C40.1602 3.75977 36.6402 0.759766 30.8802 0.759766H19.2402V29.9998ZM30.4402 5.27977C33.3202 5.27977 34.9202 6.63977 34.9202 9.15977C34.9202 11.7598 33.3602 13.2398 30.5602 13.2398H24.3602V5.27977H30.4402ZM30.8802 17.5598C33.7202 17.5598 35.3602 18.9598 35.3602 21.4398C35.3602 24.0798 33.7602 25.4798 30.8802 25.4798H24.3602V17.5598H30.8802ZM39.2643 39.1598C40.3443 39.4398 41.5443 39.5998 42.9043 39.5998C46.1443 39.5998 48.2243 38.0798 49.7043 34.3998L59.3843 10.2398H54.3443L48.9843 24.6398L43.9043 10.2398H38.7443L46.7043 30.8398L46.1443 32.3198C45.3043 34.6398 44.1043 35.0798 42.1843 35.0798H39.2643V39.1598ZM65.6761 29.9998V14.3198H69.5161V10.2398H65.6761V4.07977H60.7961V10.2398H56.9961V14.3198H60.7961V29.9998H65.6761ZM77.9946 30.5198C83.1546 30.5198 86.7546 27.9198 87.5946 23.5998H83.0746C82.5146 25.4798 80.7546 26.5198 78.0746 26.5198C74.8346 26.5198 72.9946 24.7598 72.6346 21.2798L87.5146 21.2398V19.7598C87.5146 13.5998 83.7546 9.63977 77.8346 9.63977C72.0346 9.63977 67.9946 13.9198 67.9946 20.1198C67.9946 26.2398 72.1146 30.5198 77.9946 30.5198ZM77.8746 13.6398C80.7946 13.6398 82.6746 15.4398 82.6746 18.1598H72.7546C73.2346 15.1998 74.9946 13.6398 77.8746 13.6398ZM86.7002 23.9998C86.7002 27.8798 89.8202 30.5198 94.7402 30.5198C99.6202 30.5198 103.02 28.0398 103.02 24.0398C103.02 20.9998 101.34 19.4798 98.0202 18.7198L94.4602 17.8798C92.7802 17.4798 91.9002 16.7598 91.9002 15.6398C91.9002 14.1598 93.0202 13.2798 94.9402 13.2798C96.8202 13.2798 97.9402 14.3598 97.9802 16.0398H102.62C102.58 12.1998 99.5802 9.63977 95.1402 9.63977C90.5802 9.63977 87.3002 11.9598 87.3002 15.8398C87.3002 18.9998 89.0202 20.6798 92.5802 21.4798L96.1402 22.3198C97.9002 22.7198 98.4202 23.4398 98.4202 24.4398C98.4202 25.8798 97.1802 26.7998 94.9002 26.7998C92.6602 26.7998 91.3802 25.7198 91.3402 23.9998H86.7002Z" fill="#169639"/>
<path d="M23.2872 29.9998H11.4472C5.40725 29.9998 1.92725 27.0798 1.92725 22.0798C1.92725 18.6798 3.48725 16.3598 6.56725 15.3598C3.80725 14.1998 2.36725 11.8798 2.36725 8.63977C2.36725 3.75977 5.88725 0.759766 11.6472 0.759766H23.2872V29.9998ZM12.0872 5.27977C9.20725 5.27977 7.60725 6.63977 7.60725 9.15977C7.60725 11.7598 9.16725 13.2398 11.9672 13.2398H18.1672V5.27977H12.0872ZM11.6472 17.5598C8.80725 17.5598 7.16725 18.9598 7.16725 21.4398C7.16725 24.0798 8.76725 25.4798 11.6472 25.4798H18.1672V17.5598H11.6472Z" fill="#07080A"/>
</svg>
