<svg width="80" height="80" viewBox="0 0 80 80" fill="none" xmlns="http://www.w3.org/2000/svg">
<g clip-path="url(#clip0_220_1356)">
<path d="M40 80C32.0888 80 24.3552 77.6541 17.7772 73.2588C11.1992 68.8635 6.07234 62.6164 3.04484 55.3074C0.0173312 47.9983 -0.774802 39.9556 0.768607 32.1964C2.31202 24.4372 6.12165 17.3098 11.7157 11.7157C17.3098 6.12165 24.4372 2.31202 32.1964 0.768607C39.9556 -0.774802 47.9983 0.0173312 55.3074 3.04484C62.6164 6.07234 68.8635 11.1992 73.2588 17.7772C77.6541 24.3552 80 32.0888 80 40C80 50.6087 75.7857 60.7828 68.2843 68.2843C60.7828 75.7857 50.6087 80 40 80ZM40 6.15386C33.3059 6.15386 26.7621 8.13891 21.1961 11.858C15.6301 15.577 11.292 20.8631 8.73025 27.0477C6.16851 33.2322 5.49825 40.0376 6.80421 46.6031C8.11017 53.1686 11.3337 59.1994 16.0672 63.9329C20.8006 68.6663 26.8315 71.8899 33.397 73.1958C39.9625 74.5018 46.7678 73.8315 52.9524 71.2698C59.137 68.708 64.423 64.3699 68.1421 58.8039C71.8611 53.238 73.8462 46.6942 73.8462 40C73.8462 31.0235 70.2803 22.4146 63.9329 16.0672C57.5855 9.71979 48.9766 6.15386 40 6.15386Z" fill="#0E8A1A"/>
<path d="M35.3842 57.8466C34.9796 57.8429 34.5798 57.7594 34.2076 57.6011C33.8354 57.4427 33.4981 57.2124 33.2149 56.9235L19.0611 42.7851C18.559 42.1947 18.2982 41.4366 18.3309 40.6622C18.3635 39.8879 18.6871 39.1544 19.2371 38.6084C19.787 38.0623 20.5228 37.7439 21.2973 37.7167C22.0719 37.6896 22.8281 37.9557 23.4149 38.462L37.5534 52.6004C37.9811 53.0307 38.2721 53.5778 38.3897 54.173C38.5074 54.7681 38.4465 55.3848 38.2147 55.9454C37.9828 56.5061 37.5905 56.9857 37.0868 57.324C36.5832 57.6622 35.9908 57.8441 35.3842 57.8466Z" fill="#0E8A1A"/>
<path d="M35.385 57.8462C34.7752 57.8467 34.179 57.6659 33.6721 57.3269C33.1651 56.9879 32.7704 56.5059 32.5379 55.9421C32.3055 55.3783 32.2458 54.7581 32.3665 54.1603C32.4872 53.5625 32.7828 53.0141 33.2158 52.5847L56.585 29.2308C57.1624 28.6535 57.9455 28.3291 58.762 28.3291C59.5785 28.3291 60.3615 28.6535 60.9389 29.2308C61.5162 29.8082 61.8406 30.5912 61.8406 31.4077C61.8406 32.2242 61.5162 33.0073 60.9389 33.5847L37.5543 56.9231C37.2711 57.212 36.9338 57.4423 36.5616 57.6007C36.1894 57.759 35.7895 57.8425 35.385 57.8462Z" fill="#0E8A1A"/>
</g>
<defs>
<clipPath id="clip0_220_1356">
<rect width="80" height="80" fill="white"/>
</clipPath>
</defs>
</svg>
