<svg width="32" height="32" viewBox="0 0 32 32" fill="none" xmlns="http://www.w3.org/2000/svg">
<path d="M11.254 22.0019C10.9353 22.0019 10.6167 21.8845 10.3651 21.6329C10.1312 21.3962 10 21.0769 10 20.7441C10 20.4113 10.1312 20.0919 10.3651 19.8552L19.8575 10.3628C20.3439 9.87646 21.1489 9.87646 21.6352 10.3628C22.1216 10.8492 22.1216 11.6542 21.6352 12.1405L12.1428 21.6329C11.908 21.8845 11.5726 22.0019 11.254 22.0019Z" fill="white"/>
<path d="M20.7464 22.0019C20.4277 22.0019 20.1091 21.8845 19.8575 21.6329L10.3651 12.1405C10.1312 11.9038 10 11.5845 10 11.2517C10 10.9189 10.1312 10.5995 10.3651 10.3628C10.8515 9.87646 11.6565 9.87646 12.1428 10.3628L21.6352 19.8552C22.1216 20.3416 22.1216 21.1466 21.6352 21.6329C21.3837 21.8845 21.065 22.0019 20.7464 22.0019Z" fill="white"/>
<rect x="1" y="1" width="30" height="30" rx="15" stroke="white" stroke-width="2"/>
</svg>
