<svg width="21" height="20" viewBox="0 0 21 20" fill="none" xmlns="http://www.w3.org/2000/svg">
<path d="M9.6665 1.66699H7.99984C3.83317 1.66699 2.1665 3.33366 2.1665 7.50033V12.5003C2.1665 16.667 3.83317 18.3337 7.99984 18.3337H12.9998C17.1665 18.3337 18.8332 16.667 18.8332 12.5003V10.8337" stroke="white" stroke-width="1.5" stroke-linecap="round" stroke-linejoin="round"/>
<path d="M13.8666 2.51639L7.2999 9.08305C7.0499 9.33305 6.7999 9.82472 6.7499 10.1831L6.39157 12.6914C6.25823 13.5997 6.8999 14.2331 7.80823 14.1081L10.3166 13.7497C10.6666 13.6997 11.1582 13.4497 11.4166 13.1997L17.9832 6.63306C19.1166 5.49972 19.6499 4.18306 17.9832 2.51639C16.3166 0.849722 14.9999 1.38306 13.8666 2.51639V2.51639Z" stroke="white" stroke-width="1.5" stroke-miterlimit="10" stroke-linecap="round" stroke-linejoin="round"/>
<path d="M12.9248 3.45801C13.2011 4.43923 13.7248 5.33306 14.4456 6.05388C15.1664 6.7747 16.0602 7.29835 17.0415 7.57467" stroke="white" stroke-width="1.125" stroke-miterlimit="10" stroke-linecap="round" stroke-linejoin="round"/>
</svg>
