<svg width="80" height="80" viewBox="0 0 80 80" fill="none" xmlns="http://www.w3.org/2000/svg">
<path d="M40 77.5C32.5832 77.5 25.333 75.3007 19.1661 71.1801C12.9993 67.0596 8.19282 61.2029 5.35453 54.3506C2.51625 47.4984 1.77362 39.9584 3.22057 32.6841C4.66751 25.4098 8.23904 18.728 13.4835 13.4835C18.728 8.23904 25.4098 4.66751 32.6841 3.22057C39.9584 1.77362 47.4984 2.51625 54.3506 5.35453C61.2029 8.19282 67.0596 12.9993 71.1801 19.1661C75.3007 25.333 77.5 32.5832 77.5 40C77.5 49.9456 73.5491 59.4839 66.5165 66.5165C59.4839 73.5491 49.9456 77.5 40 77.5ZM40 7.50002C33.5721 7.50002 27.2886 9.40611 21.944 12.9773C16.5994 16.5484 12.4338 21.6242 9.97393 27.5628C7.51408 33.5014 6.87047 40.0361 8.12449 46.3405C9.37851 52.6448 12.4738 58.4358 17.019 62.981C21.5643 67.5262 27.3552 70.6215 33.6596 71.8755C39.964 73.1296 46.4986 72.4859 52.4372 70.0261C58.3758 67.5662 63.4516 63.4006 67.0228 58.056C70.5939 52.7114 72.5 46.4279 72.5 40C72.5 31.3805 69.0759 23.114 62.981 17.019C56.8861 10.9241 48.6195 7.50002 40 7.50002Z" fill="#0E8A1A"/>
<path d="M40 60C39.0111 60 38.0444 59.7068 37.2222 59.1574C36.3999 58.6079 35.759 57.8271 35.3806 56.9134C35.0022 55.9998 34.9031 54.9945 35.0961 54.0246C35.289 53.0546 35.7652 52.1637 36.4645 51.4645C37.1637 50.7652 38.0546 50.289 39.0246 50.0961C39.9945 49.9031 40.9998 50.0022 41.9134 50.3806C42.8271 50.759 43.6079 51.3999 44.1574 52.2221C44.7068 53.0444 45 54.0111 45 55C45 56.3261 44.4732 57.5979 43.5355 58.5355C42.5979 59.4732 41.3261 60 40 60Z" fill="#0E8A1A"/>
<path d="M40 45C39.337 45 38.7011 44.7366 38.2322 44.2678C37.7634 43.7989 37.5 43.163 37.5 42.5V20C37.5 19.337 37.7634 18.7011 38.2322 18.2322C38.7011 17.7634 39.337 17.5 40 17.5C40.663 17.5 41.2989 17.7634 41.7678 18.2322C42.2366 18.7011 42.5 19.337 42.5 20V42.5C42.5 43.163 42.2366 43.7989 41.7678 44.2678C41.2989 44.7366 40.663 45 40 45Z" fill="#0E8A1A"/>
</svg>
