<svg width="18" height="20" viewBox="0 0 18 20" fill="none" xmlns="http://www.w3.org/2000/svg">
<path d="M12.291 10.2384C13.5382 10.2384 14.7343 9.74293 15.6162 8.86104C16.4981 7.97915 16.9935 6.78305 16.9935 5.53587C16.9935 4.28869 16.4981 3.09259 15.6162 2.2107C14.7343 1.32881 13.5382 0.833374 12.291 0.833374C11.0438 0.833374 9.84772 1.32881 8.96583 2.2107C8.08394 3.09259 7.5885 4.28869 7.5885 5.53587C7.5885 6.78305 8.08394 7.97915 8.96583 8.86104C9.84772 9.74293 11.0438 10.2384 12.291 10.2384ZM3.83017 16.82C4.57896 16.82 5.29709 16.5226 5.82657 15.9931C6.35605 15.4636 6.6535 14.7455 6.6535 13.9967C6.6535 13.2479 6.35605 12.5298 5.82657 12.0003C5.29709 11.4708 4.57896 11.1734 3.83017 11.1734C3.08137 11.1734 2.36325 11.4708 1.83377 12.0003C1.30429 12.5298 1.00684 13.2479 1.00684 13.9967C1.00684 14.7455 1.30429 15.4636 1.83377 15.9931C2.36325 16.5226 3.08137 16.82 3.83017 16.82ZM13.2352 19.1667C13.5433 19.1667 13.8485 19.106 14.1332 18.9881C14.4179 18.8701 14.6766 18.6973 14.8945 18.4794C15.1124 18.2615 15.2853 18.0028 15.4032 17.7181C15.5211 17.4334 15.5818 17.1282 15.5818 16.82C15.5818 16.5119 15.5211 16.2067 15.4032 15.922C15.2853 15.6373 15.1124 15.3786 14.8945 15.1607C14.6766 14.9428 14.4179 14.7699 14.1332 14.652C13.8485 14.5341 13.5433 14.4734 13.2352 14.4734C12.6128 14.4734 12.0159 14.7206 11.5758 15.1607C11.1357 15.6008 10.8885 16.1977 10.8885 16.82C10.8885 17.4424 11.1357 18.0393 11.5758 18.4794C12.0159 18.9195 12.6128 19.1667 13.2352 19.1667Z" stroke="#FAFAFA" stroke-width="1.5" stroke-miterlimit="10"/>
</svg>
