<svg width="18" height="20" viewBox="0 0 18 20" fill="none" xmlns="http://www.w3.org/2000/svg">
<path d="M12.291 10.238C13.5382 10.238 14.7343 9.74257 15.6162 8.86068C16.4981 7.97879 16.9935 6.78269 16.9935 5.53551C16.9935 4.28833 16.4981 3.09223 15.6162 2.21034C14.7343 1.32845 13.5382 0.833008 12.291 0.833008C11.0438 0.833008 9.84772 1.32845 8.96583 2.21034C8.08394 3.09223 7.5885 4.28833 7.5885 5.53551C7.5885 6.78269 8.08394 7.97879 8.96583 8.86068C9.84772 9.74257 11.0438 10.238 12.291 10.238ZM3.83017 16.8197C4.57896 16.8197 5.29709 16.5222 5.82657 15.9927C6.35605 15.4633 6.6535 14.7451 6.6535 13.9963C6.6535 13.2475 6.35605 12.5294 5.82657 11.9999C5.29709 11.4705 4.57896 11.173 3.83017 11.173C3.08137 11.173 2.36325 11.4705 1.83377 11.9999C1.30429 12.5294 1.00684 13.2475 1.00684 13.9963C1.00684 14.7451 1.30429 15.4633 1.83377 15.9927C2.36325 16.5222 3.08137 16.8197 3.83017 16.8197ZM13.2352 19.1663C13.5433 19.1663 13.8485 19.1056 14.1332 18.9877C14.4179 18.8698 14.6766 18.6969 14.8945 18.479C15.1124 18.2611 15.2853 18.0024 15.4032 17.7177C15.5211 17.433 15.5818 17.1278 15.5818 16.8197C15.5818 16.5115 15.5211 16.2064 15.4032 15.9216C15.2853 15.6369 15.1124 15.3782 14.8945 15.1603C14.6766 14.9424 14.4179 14.7696 14.1332 14.6516C13.8485 14.5337 13.5433 14.473 13.2352 14.473C12.6128 14.473 12.0159 14.7202 11.5758 15.1603C11.1357 15.6004 10.8885 16.1973 10.8885 16.8197C10.8885 17.442 11.1357 18.0389 11.5758 18.479C12.0159 18.9191 12.6128 19.1663 13.2352 19.1663Z" stroke="#48484A" stroke-width="1.5" stroke-miterlimit="10"/>
</svg>
