<svg width="24" height="24" viewBox="0 0 24 24" fill="none" xmlns="http://www.w3.org/2000/svg">
<path d="M16.52 18.35L13.42 20.75C13.02 21.15 12.12 21.35 11.52 21.35H7.72002C6.52002 21.35 5.22002 20.45 4.92002 19.25L2.52002 11.95C2.02002 10.55 2.92002 9.34997 4.42002 9.34997H8.42002C9.02002 9.34997 9.52002 8.84997 9.42002 8.14997L8.92002 4.94997C8.72002 4.04997 9.32002 3.04997 10.22 2.74997C11.02 2.44997 12.02 2.84997 12.42 3.44997L16.52 9.54997" stroke="#FAFAFA" stroke-width="1.5" stroke-miterlimit="10"/>
<path d="M21.6201 18.35V8.55002C21.6201 7.15002 21.0201 6.65002 19.6201 6.65002H18.6201C17.2201 6.65002 16.6201 7.15002 16.6201 8.55002V18.35C16.6201 19.75 17.2201 20.25 18.6201 20.25H19.6201C21.0201 20.25 21.6201 19.75 21.6201 18.35Z" stroke="#FAFAFA" stroke-width="1.5" stroke-linecap="round" stroke-linejoin="round"/>
</svg>
