<svg width="22" height="23" viewBox="0 0 22 23" fill="none" xmlns="http://www.w3.org/2000/svg">
<path d="M19.8559 0.975586H2.02508C1.17164 0.975586 0.479492 1.65122 0.479492 2.48392V20.5234C0.479492 21.3557 1.17164 22.0313 2.02508 22.0313H19.8559C20.7106 22.0313 21.4027 21.3552 21.4027 20.5234V2.48392C21.4027 1.6508 20.7101 0.975586 19.8559 0.975586ZM6.82144 18.6019H3.66126V9.09426H6.82144V18.6019ZM5.24156 7.79548H5.22039C4.16037 7.79548 3.47457 7.06523 3.47457 6.15294C3.47457 5.22034 4.18154 4.51041 5.26231 4.51041C6.3435 4.51041 7.00855 5.22034 7.02972 6.15294C7.02972 7.06523 6.34307 7.79548 5.24156 7.79548ZM18.2171 18.6019H15.057V13.5143C15.057 12.2367 14.5998 11.3646 13.4563 11.3646C12.5834 11.3646 12.0636 11.9526 11.8345 12.5207C11.7511 12.7235 11.7308 13.0071 11.7308 13.2916V18.6015H8.57065C8.57065 18.6015 8.61214 9.98495 8.57065 9.09384H11.7308V10.4396C12.1508 9.79191 12.9018 8.86947 14.5794 8.86947C16.6584 8.86947 18.2176 10.2288 18.2176 13.1494L18.2171 18.6019Z" fill="#767D8D"/>
</svg>
