<svg width="24" height="24" viewBox="0 0 24 24" fill="none" xmlns="http://www.w3.org/2000/svg">
<path d="M7.21783 9.49081L7.19718 9.82081C7.15735 10.457 7.22084 11.0939 7.38519 11.7098L7.40379 11.7795L7.35275 11.8304L6.16331 13.0184L7.21783 9.49081ZM7.21783 9.49081L6.98403 9.72461M7.21783 9.49081L6.98403 9.72461M6.98403 9.72461L4.92603 11.7826C4.0586 12.65 3.57129 13.8265 3.57129 15.0532C3.57129 16.28 4.0586 17.4565 4.92603 18.3239C5.79346 19.1913 6.96994 19.6786 8.19667 19.6786C9.4234 19.6786 10.5999 19.1913 11.4673 18.3239L11.4673 18.3239M6.98403 9.72461L11.4673 18.3239M11.4673 18.3239L14.2093 15.5804C14.7324 15.0572 15.1223 14.4162 15.3464 13.7112C15.5705 13.0061 15.6222 12.2576 15.4972 11.5285C15.3721 10.7993 15.074 10.1108 14.6278 9.52071C14.1816 8.93063 13.6003 8.45618 12.9328 8.13722L12.853 8.0991M11.4673 18.3239L12.853 8.0991M12.853 8.0991L12.7905 8.16161M12.853 8.0991L12.7905 8.16161M12.7905 8.16161L11.9115 9.04061L11.9115 9.04069M12.7905 8.16161L11.9115 9.04069M11.9115 9.04069C11.8148 9.13752 11.7307 9.24616 11.6612 9.36402L11.5793 9.50304M11.9115 9.04069L11.5793 9.50304M11.5793 9.50304L11.7344 9.54763M11.5793 9.50304L11.7344 9.54763M11.7344 9.54763C12.2153 9.68588 12.6517 9.94723 13.0007 10.3059C13.3496 10.6645 13.5989 11.108 13.7239 11.5925C13.8489 12.0769 13.8453 12.5857 13.7134 13.0683C13.5816 13.551 13.326 13.9909 12.9721 14.3446L12.972 14.3446M11.7344 9.54763L12.972 14.3446M12.972 14.3446L10.2315 17.0866M12.972 14.3446L10.2315 17.0866M10.2315 17.0866C10.2315 17.0866 10.2315 17.0866 10.2315 17.0866M10.2315 17.0866L10.2315 17.0866M10.2315 17.0866C9.69203 17.6261 8.96035 17.9292 8.19742 17.9292M10.2315 17.0866L8.19742 17.9292M8.19742 17.9292C7.43448 17.9292 6.70279 17.6261 6.16331 17.0866M8.19742 17.9292L6.16331 17.0866M6.16331 17.0866C5.62383 16.5471 5.32075 15.8154 5.32075 15.0525M6.16331 17.0866L5.32075 15.0525M5.32075 15.0525C5.32075 14.2896 5.62381 13.5579 6.16325 13.0184L5.32075 15.0525Z" fill="#767D8D" stroke="#767D8D" stroke-width="0.25"/>
<path d="M9.66788 6.91998L9.66788 6.91999C9.1448 7.44315 8.75485 8.08415 8.53076 8.78919C8.30667 9.49423 8.25498 10.2427 8.38003 10.9719C8.50508 11.7011 8.80322 12.3896 9.24942 12.9797C9.69562 13.5697 10.2769 14.0442 10.9444 14.3632L11.0242 14.4013L11.0867 14.3387L12.2492 13.1747L12.4021 13.0217L12.1932 12.9656C11.7058 12.8349 11.2614 12.5782 10.9046 12.2213C10.5479 11.8644 10.2914 11.4199 10.1608 10.9325C10.0303 10.445 10.0304 9.93182 10.161 9.44441C10.2917 8.957 10.5483 8.51257 10.9052 8.15577L10.9052 8.15574L13.6457 5.41376C13.6457 5.41375 13.6457 5.41375 13.6457 5.41374C14.1852 4.87427 14.9168 4.5712 15.6798 4.5712C16.4427 4.5712 17.1744 4.87428 17.7139 5.41376C18.2534 5.95324 18.5564 6.68493 18.5564 7.44787C18.5564 8.21081 18.2534 8.9425 17.7139 9.48198L16.5244 10.6699L16.4734 10.7209L16.492 10.7906C16.6565 11.4075 16.7197 12.0465 16.68 12.6811L16.6594 13.011L16.8932 12.7773L18.9512 10.7193C19.8186 9.85183 20.3059 8.67535 20.3059 7.44862C20.3059 6.2219 19.8186 5.04541 18.9512 4.17799C18.0837 3.31056 16.9072 2.82324 15.6805 2.82324C14.4538 2.82324 13.2773 3.31056 12.4099 4.17799L9.66788 6.91998Z" fill="#767D8D" stroke="#767D8D" stroke-width="0.25"/>
</svg>
