<svg width="23" height="30" viewBox="0 0 23 30" fill="none" xmlns="http://www.w3.org/2000/svg">
<path d="M22.2872 29.9998H10.4472C4.40725 29.9998 0.927246 27.0798 0.927246 22.0798C0.927246 18.6798 2.48725 16.3598 5.56725 15.3598C2.80725 14.1998 1.36725 11.8798 1.36725 8.63977C1.36725 3.75977 4.88725 0.759766 10.6472 0.759766H22.2872V29.9998ZM11.0872 5.27977C8.20725 5.27977 6.60725 6.63977 6.60725 9.15977C6.60725 11.7598 8.16725 13.2398 10.9672 13.2398H17.1672V5.27977H11.0872ZM10.6472 17.5598C7.80725 17.5598 6.16725 18.9598 6.16725 21.4398C6.16725 24.0798 7.76725 25.4798 10.6472 25.4798H17.1672V17.5598H10.6472Z" fill="#07080A"/>
</svg>
