<svg width="85" height="40" viewBox="0 0 85 40" fill="none" xmlns="http://www.w3.org/2000/svg">
<path d="M0.240234 29.9998H12.0802C18.1202 29.9998 21.6002 27.0798 21.6002 22.0798C21.6002 18.6798 20.0402 16.3598 16.9602 15.3598C19.7202 14.1998 21.1602 11.8798 21.1602 8.63977C21.1602 3.75977 17.6402 0.759766 11.8802 0.759766H0.240234V29.9998ZM11.4402 5.27977C14.3202 5.27977 15.9202 6.63977 15.9202 9.15977C15.9202 11.7598 14.3602 13.2398 11.5602 13.2398H5.36024V5.27977H11.4402ZM11.8802 17.5598C14.7202 17.5598 16.3602 18.9598 16.3602 21.4398C16.3602 24.0798 14.7602 25.4798 11.8802 25.4798H5.36024V17.5598H11.8802ZM20.2643 39.1598C21.3443 39.4398 22.5443 39.5998 23.9043 39.5998C27.1443 39.5998 29.2243 38.0798 30.7043 34.3998L40.3843 10.2398H35.3443L29.9843 24.6398L24.9043 10.2398H19.7443L27.7043 30.8398L27.1443 32.3198C26.3043 34.6398 25.1043 35.0798 23.1843 35.0798H20.2643V39.1598ZM46.6761 29.9998V14.3198H50.5161V10.2398H46.6761V4.07977H41.7961V10.2398H37.9961V14.3198H41.7961V29.9998H46.6761ZM58.9946 30.5198C64.1546 30.5198 67.7546 27.9198 68.5946 23.5998H64.0746C63.5146 25.4798 61.7546 26.5198 59.0746 26.5198C55.8346 26.5198 53.9946 24.7598 53.6346 21.2798L68.5146 21.2398V19.7598C68.5146 13.5998 64.7546 9.63977 58.8346 9.63977C53.0346 9.63977 48.9946 13.9198 48.9946 20.1198C48.9946 26.2398 53.1146 30.5198 58.9946 30.5198ZM58.8746 13.6398C61.7946 13.6398 63.6746 15.4398 63.6746 18.1598H53.7546C54.2346 15.1998 55.9946 13.6398 58.8746 13.6398ZM67.7002 23.9998C67.7002 27.8798 70.8202 30.5198 75.7402 30.5198C80.6202 30.5198 84.0202 28.0398 84.0202 24.0398C84.0202 20.9998 82.3402 19.4798 79.0202 18.7198L75.4602 17.8798C73.7802 17.4798 72.9002 16.7598 72.9002 15.6398C72.9002 14.1598 74.0202 13.2798 75.9402 13.2798C77.8202 13.2798 78.9402 14.3598 78.9802 16.0398H83.6202C83.5802 12.1998 80.5802 9.63977 76.1402 9.63977C71.5802 9.63977 68.3002 11.9598 68.3002 15.8398C68.3002 18.9998 70.0202 20.6798 73.5802 21.4798L77.1402 22.3198C78.9002 22.7198 79.4202 23.4398 79.4202 24.4398C79.4202 25.8798 78.1802 26.7998 75.9002 26.7998C73.6602 26.7998 72.3802 25.7198 72.3402 23.9998H67.7002Z" fill="#169639"/>
</svg>
