<svg width="16" height="22" viewBox="0 0 16 22" fill="none" xmlns="http://www.w3.org/2000/svg">
<path d="M8.16022 9.86975C8.06022 9.85975 7.94022 9.85975 7.83022 9.86975C6.68242 9.83078 5.59486 9.34658 4.79784 8.5197C4.00083 7.69283 3.55696 6.5882 3.56022 5.43974C3.56022 2.98974 5.54022 0.999745 8.00022 0.999745C8.58263 0.989239 9.16141 1.09355 9.70351 1.30672C10.2456 1.5199 10.7404 1.83776 11.1597 2.24216C11.5789 2.64656 11.9144 3.12957 12.147 3.66363C12.3796 4.19769 12.5047 4.77233 12.5152 5.35474C12.5257 5.93716 12.4214 6.51594 12.2082 7.05804C11.9951 7.60013 11.6772 8.09494 11.2728 8.51419C10.8684 8.93345 10.3854 9.26895 9.85133 9.50154C9.31727 9.73412 8.74263 9.85924 8.16022 9.86975ZM3.16022 13.5597C0.740215 15.1797 0.740215 17.8197 3.16022 19.4297C5.91022 21.2697 10.4202 21.2697 13.1702 19.4297C15.5902 17.8097 15.5902 15.1697 13.1702 13.5597C10.4302 11.7297 5.92022 11.7297 3.16022 13.5597Z" stroke="#48484A" stroke-width="1.5" stroke-linecap="round" stroke-linejoin="round"/>
</svg>
