<svg width="20" height="28" viewBox="0 0 20 28" fill="none" xmlns="http://www.w3.org/2000/svg">
<path d="M9.99995 0.666626C6.50661 0.666626 3.66661 3.50663 3.66661 6.99996C3.66661 10.4266 6.34661 13.2 9.83995 13.32C9.94662 13.3066 10.0533 13.3066 10.1333 13.32H10.2266C11.8658 13.2653 13.4194 12.5753 14.559 11.3958C15.6986 10.2164 16.3349 8.64001 16.3333 6.99996C16.3333 3.50663 13.4933 0.666626 9.99995 0.666626ZM16.7733 16.8653C13.0533 14.3853 6.98661 14.3853 3.23995 16.8653C1.54661 17.9986 0.613281 19.532 0.613281 21.172C0.613281 22.812 1.54661 24.332 3.22661 25.452C5.09328 26.7053 7.54661 27.332 9.99995 27.332C12.4533 27.332 14.9066 26.7053 16.7733 25.452C18.4533 24.3186 19.3866 22.7986 19.3866 21.1453C19.3733 19.5053 18.4533 17.9853 16.7733 16.8653Z" fill="#FAFAFA"/>
</svg>
