<svg width="32" height="32" viewBox="0 0 32 32" fill="none" xmlns="http://www.w3.org/2000/svg">
<path d="M17.1865 7.83862H6.81317C5.71449 7.84214 4.66181 8.28015 3.88492 9.05704C3.10803 9.83393 2.67002 10.8866 2.6665 11.9853V27.132C2.6665 29.0653 4.05317 29.892 5.7465 28.9453L10.9865 26.0253C11.5465 25.7186 12.4532 25.7186 12.9998 26.0253L18.2398 28.9453C19.9465 29.8786 21.3332 29.0653 21.3332 27.132V11.9853C21.3332 9.70529 19.4665 7.83862 17.1865 7.83862Z" fill="#07080A"/>
<path d="M29.3333 6.81341V21.9601C29.3333 23.8934 27.9466 24.7067 26.2533 23.7734L23.68 22.3334C23.5756 22.2749 23.4885 22.1898 23.4276 22.0867C23.3668 21.9837 23.3342 21.8664 23.3333 21.7467V11.9867C23.3333 8.60008 20.5733 5.84008 17.1866 5.84008H11.76C11.2666 5.84008 10.92 5.32008 11.1466 4.89341C11.84 3.57341 13.2266 2.66675 14.8133 2.66675H25.1866C27.4666 2.66675 29.3333 4.53341 29.3333 6.81341Z" fill="#07080A"/>
</svg>
