<svg width="22" height="22" viewBox="0 0 22 22" fill="none" xmlns="http://www.w3.org/2000/svg">
<path d="M11.816 5.38965H4.68433C3.92899 5.39207 3.20527 5.6932 2.67116 6.22731C2.13704 6.76142 1.83591 7.48514 1.8335 8.24048V18.6538C1.8335 19.983 2.78683 20.5513 3.951 19.9005L7.5535 17.893C7.9385 17.6821 8.56183 17.6821 8.93766 17.893L12.5402 19.9005C13.7043 20.5513 14.6577 19.983 14.6577 18.6538V8.24048C14.6583 7.86671 14.5852 7.49647 14.4428 7.15092C14.3003 6.80537 14.0911 6.49126 13.8273 6.22654C13.5634 5.96181 13.25 5.75165 12.9049 5.60806C12.5598 5.46447 12.1898 5.39025 11.816 5.38965Z" stroke="#48484A" stroke-width="1.5" stroke-linecap="round" stroke-linejoin="round"/>
<path d="M14.6668 8.24048V18.6538C14.6668 19.983 13.7135 20.5421 12.5493 19.9005L8.94683 17.893C8.56183 17.6821 7.9385 17.6821 7.5535 17.893L3.951 19.9005C2.78683 20.5421 1.8335 19.983 1.8335 18.6538V8.24048C1.8335 6.67298 3.11683 5.38965 4.68433 5.38965H11.816C13.3835 5.38965 14.6668 6.67298 14.6668 8.24048Z" stroke="#48484A" stroke-width="1.5" stroke-linecap="round" stroke-linejoin="round"/>
<path d="M20.1668 4.68384V15.0972C20.1668 16.4263 19.2135 16.9855 18.0493 16.3438L14.6668 14.4555V8.24051C14.6668 6.67301 13.3835 5.38967 11.816 5.38967H7.3335V4.68384C7.3335 3.11634 8.61683 1.83301 10.1843 1.83301H17.316C18.8835 1.83301 20.1668 3.11634 20.1668 4.68384Z" stroke="#48484A" stroke-width="1.5" stroke-linecap="round" stroke-linejoin="round"/>
</svg>
