<svg width="18" height="19" viewBox="0 0 18 19" fill="none" xmlns="http://www.w3.org/2000/svg">
<path d="M16.9864 17.6598L15.3871 16.0257M8.59021 16.8427C9.58781 16.8427 10.5756 16.642 11.4973 16.2519C12.4189 15.8619 13.2564 15.2901 13.9618 14.5694C14.6672 13.8486 15.2268 12.993 15.6085 12.0513C15.9903 11.1096 16.1868 10.1003 16.1868 9.08104C16.1868 8.06176 15.9903 7.05246 15.6085 6.11076C15.2268 5.16907 14.6672 4.31343 13.9618 3.59269C13.2564 2.87195 12.4189 2.30022 11.4973 1.91016C10.5756 1.5201 9.58781 1.31934 8.59021 1.31934C6.57548 1.31934 4.64326 2.13708 3.21863 3.59269C1.794 5.04829 0.993652 7.02251 0.993652 9.08104C0.993652 11.1396 1.794 13.1138 3.21863 14.5694C4.64326 16.025 6.57548 16.8427 8.59021 16.8427V16.8427Z" stroke="white" stroke-width="1.5" stroke-linecap="round" stroke-linejoin="round"/>
</svg>
