<svg width="19" height="19" viewBox="0 0 19 19" fill="none" xmlns="http://www.w3.org/2000/svg">
<path d="M3.9249 12.5376C2.2749 12.5376 0.962402 11.2251 0.962402 9.57506C0.962402 7.92506 2.2749 6.61255 3.9249 6.61255C5.5749 6.61255 6.88741 7.92506 6.88741 9.57506C6.88741 11.1876 5.5749 12.5376 3.9249 12.5376ZM3.9249 7.70006C2.9124 7.70006 2.0874 8.52506 2.0874 9.53756C2.0874 10.5501 2.9124 11.3751 3.9249 11.3751C4.9374 11.3751 5.76241 10.5501 5.76241 9.53756C5.76241 8.56256 4.9374 7.70006 3.9249 7.70006Z" fill="#07080A"/>
<path d="M15.9625 6.49995C14.3125 6.49995 13 5.18745 13 3.53745C13 1.88745 14.3125 0.574951 15.9625 0.574951C17.6125 0.574951 18.925 1.88745 18.925 3.53745C18.925 5.18745 17.575 6.49995 15.9625 6.49995ZM15.9625 1.69995C14.95 1.69995 14.125 2.52495 14.125 3.53745C14.125 4.54995 14.95 5.37495 15.9625 5.37495C16.975 5.37495 17.8 4.54995 17.8 3.53745C17.8 2.52495 16.975 1.69995 15.9625 1.69995Z" fill="#07080A"/>
<path d="M15.9625 18.5376C14.3125 18.5376 13 17.2251 13 15.5751C13 13.9251 14.3125 12.6125 15.9625 12.6125C17.6125 12.6125 18.925 13.9251 18.925 15.5751C18.925 17.2251 17.575 18.5376 15.9625 18.5376ZM15.9625 13.7375C14.95 13.7375 14.125 14.5626 14.125 15.5751C14.125 16.5876 14.95 17.4126 15.9625 17.4126C16.975 17.4126 17.8 16.5876 17.8 15.5751C17.8 14.5626 16.975 13.7375 15.9625 13.7375Z" fill="#07080A"/>
<path d="M13.5248 15.0498L5.7998 11.1874L6.32481 10.0999L14.0873 13.9623L13.5248 15.0498Z" fill="#07080A"/>
<path d="M6.32481 9.01236L5.7998 7.96235L13.5248 4.09985L14.0873 5.14985L6.32481 9.01236Z" fill="#07080A"/>
</svg>
