<svg width="64" height="64" viewBox="0 0 64 64" fill="none" xmlns="http://www.w3.org/2000/svg">
<path d="M58.6668 31.9997C58.6668 17.3063 46.6935 5.33301 32.0002 5.33301C17.3068 5.33301 5.3335 17.3063 5.3335 31.9997C5.3335 39.733 8.66683 46.693 13.9468 51.573C13.9468 51.5997 13.9468 51.5997 13.9202 51.6263C14.1868 51.893 14.5068 52.1063 14.7735 52.3463C14.9335 52.4797 15.0668 52.613 15.2268 52.7197C15.7068 53.1197 16.2402 53.493 16.7468 53.8663L17.2802 54.2397C17.7868 54.5863 18.3202 54.9063 18.8802 55.1997C19.0668 55.3063 19.2802 55.4397 19.4668 55.5463C20.0002 55.8397 20.5602 56.1063 21.1468 56.3463C21.3602 56.453 21.5735 56.5597 21.7868 56.6397C22.3735 56.8797 22.9602 57.093 23.5468 57.2797C23.7602 57.3597 23.9735 57.4397 24.1868 57.493C24.8268 57.6797 25.4668 57.8397 26.1068 57.9997C26.2935 58.053 26.4802 58.1063 26.6935 58.133C27.4402 58.293 28.1868 58.3997 28.9602 58.4797C29.0668 58.4797 29.1735 58.5063 29.2802 58.533C30.1868 58.613 31.0935 58.6663 32.0002 58.6663C32.9068 58.6663 33.8135 58.613 34.6935 58.533C34.8002 58.533 34.9068 58.5063 35.0135 58.4797C35.7868 58.3997 36.5335 58.293 37.2802 58.133C37.4668 58.1063 37.6535 58.0263 37.8668 57.9997C38.5068 57.8397 39.1735 57.7063 39.7868 57.493C40.0002 57.413 40.2135 57.333 40.4268 57.2797C41.0135 57.0663 41.6268 56.8797 42.1868 56.6397C42.4002 56.5597 42.6135 56.453 42.8268 56.3463C43.3868 56.1063 43.9468 55.8397 44.5068 55.5463C44.7202 55.4397 44.9068 55.3063 45.0935 55.1997C45.6268 54.8797 46.1602 54.5863 46.6935 54.2397C46.8802 54.133 47.0402 53.9997 47.2268 53.8663C47.7602 53.493 48.2668 53.1197 48.7468 52.7197C48.9068 52.5863 49.0402 52.453 49.2002 52.3463C49.4935 52.1063 49.7868 51.8663 50.0535 51.6263C50.0535 51.5997 50.0535 51.5997 50.0268 51.573C55.3335 46.693 58.6668 39.733 58.6668 31.9997ZM45.1735 45.253C37.9468 40.3997 26.1068 40.3997 18.8268 45.253C17.6535 46.0263 16.6935 46.933 15.8935 47.9197C11.693 43.6857 9.33521 37.9638 9.3335 31.9997C9.3335 19.493 19.4935 9.33301 32.0002 9.33301C44.5068 9.33301 54.6668 19.493 54.6668 31.9997C54.6668 38.1863 52.1602 43.813 48.1068 47.9197C47.3335 46.933 46.3468 46.0263 45.1735 45.253Z" fill="#8791A7"/>
<path d="M32 18.4805C26.48 18.4805 22 22.9605 22 28.4805C22 33.8938 26.24 38.2938 31.8667 38.4538H32.3467C34.9352 38.3687 37.3894 37.2807 39.1907 35.4197C40.9919 33.5587 41.9993 31.0704 42 28.4805C42 22.9605 37.52 18.4805 32 18.4805Z" fill="#8791A7"/>
</svg>
